<svg xmlns="http://www.w3.org/2000/svg" width="295" height="84" viewBox="0 0 295 84">
  <g id="Grupo_1108186" data-name="Grupo 1108186" transform="translate(-705 -781)">
    <g id="Grupo_1107940" data-name="Grupo 1107940" transform="translate(0 32)">
      <rect id="Rectángulo_402616" data-name="Rectángulo 402616" width="85" height="84" transform="translate(705 749)" fill="#94dab2"/>
      <g id="Grupo_1107982" data-name="Grupo 1107982" transform="translate(717 762)">
        <g id="Grupo_1107980" data-name="Grupo 1107980" transform="translate(1.189 1.191)">
          <path id="Trazado_898039" data-name="Trazado 898039" d="M87.665,37.465a16.85,16.85,0,0,1,7.814-6.51c-4.157-3.129-7.425-6.484-7.8-9.4-.224-1.728-2.357-2.225-3.482-.276a13.3,13.3,0,0,0,.791,13.082A14.524,14.524,0,0,0,87.665,37.465Z" transform="translate(-74.182 -20.025)" fill="#ffda8f" fill-rule="evenodd"/>
          <path id="Trazado_898040" data-name="Trazado 898040" d="M112.011,100.563a16.85,16.85,0,0,0-7.814,6.51,17.934,17.934,0,0,0-2.592,7.287c3.318,2.725,9.025,2.249,10.392-1.615s4.34-4.756,7.252-3.745,10.368-.347,8.662-8.437h0a21.325,21.325,0,0,0-15.9,0Z" transform="translate(-90.714 -89.633)" fill="#8690af" fill-rule="evenodd"/>
          <path id="Trazado_898041" data-name="Trazado 898041" d="M322.873,30.956a16.85,16.85,0,0,1,7.814,6.51,14.531,14.531,0,0,0,2.68-3.1,13.3,13.3,0,0,0,.791-13.082c-1.125-1.949-3.258-1.452-3.482.276C330.3,24.472,327.03,27.827,322.873,30.956Z" transform="translate(-285.675 -20.026)" fill="#ffda8f" fill-rule="evenodd"/>
          <path id="Trazado_898042" data-name="Trazado 898042" d="M391.275,140.618a14.53,14.53,0,0,1-2.68,3.1,17.933,17.933,0,0,1,2.592,7.287,18.745,18.745,0,0,0,10.891.032C399.894,144.739,396.119,142.3,391.275,140.618Z" transform="translate(-343.583 -126.28)" fill="#8690af" fill-rule="evenodd"/>
          <path id="Trazado_898043" data-name="Trazado 898043" d="M20.894,151.008a17.932,17.932,0,0,1,2.592-7.287,14.53,14.53,0,0,1-2.679-3.1c-4.845,1.683-8.619,4.121-10.8,10.422a18.746,18.746,0,0,0,10.891-.032Z" transform="translate(-10.003 -126.28)" fill="#8690af" fill-rule="evenodd"/>
          <path id="Trazado_898044" data-name="Trazado 898044" d="M110.585,124.138c-1.367,3.864-7.074,4.34-10.392,1.615a21.9,21.9,0,0,0-.191,2.915,33.546,33.546,0,0,0,1.618,10.673c3.493-3.107,9.768-4.193,16.93-4.193s13.437,1.086,16.93,4.193a33.545,33.545,0,0,0,1.618-10.673,21.9,21.9,0,0,0-.191-2.915,17.932,17.932,0,0,0-2.592-7.287,16.85,16.85,0,0,0-7.814-6.51h0c1.706,8.09-5.749,9.447-8.662,8.437s-5.885-.119-7.252,3.745Z" transform="translate(-89.302 -101.026)" fill="#e8eaf0" fill-rule="evenodd"/>
          <path id="Trazado_898045" data-name="Trazado 898045" d="M108.858,307.025c-7.161,0-13.437,1.086-16.93,4.193a8.671,8.671,0,0,0-2.925,6.8c0,8.452,8.89,11,19.855,11s19.855-2.546,19.855-11a8.671,8.671,0,0,0-2.925-6.8C122.3,308.111,116.019,307.025,108.858,307.025Z" transform="translate(-79.61 -272.903)" fill="#ff9eb1" fill-rule="evenodd"/>
        </g>
        <g id="Grupo_1107981" data-name="Grupo 1107981" transform="translate(0 0)">
          <path id="Trazado_898046" data-name="Trazado 898046" d="M60.807,35.57A16.217,16.217,0,0,0,50.6,24.907a14.371,14.371,0,0,0,.1-13.046,3.26,3.26,0,0,0-3.437-1.8,2.861,2.861,0,0,0-2.254,2.514c-.2,1.506-1.548,4.137-6.809,8.2a20.833,20.833,0,0,0-2.161-.68,1.189,1.189,0,0,0-.591,2.3,18.119,18.119,0,0,1,1.885.594c.358,2.306-.131,4.064-1.458,5.233a6.575,6.575,0,0,1-5.765,1.217,6.77,6.77,0,0,0-5.086.085,7.213,7.213,0,0,0-3.676,4.387,3.782,3.782,0,0,1-2.7,2.335,6.758,6.758,0,0,1-5.282-.85,15.879,15.879,0,0,1,12.049-13,1.189,1.189,0,1,0-.591-2.3,20.853,20.853,0,0,0-2.16.679c-5.262-4.062-6.614-6.692-6.809-8.2a2.861,2.861,0,0,0-2.254-2.514,3.26,3.26,0,0,0-3.437,1.8,14.354,14.354,0,0,0,.1,13.047A16.224,16.224,0,0,0,.065,35.57a1.189,1.189,0,0,0,.717,1.507,18.092,18.092,0,0,0,5.739.855,20.528,20.528,0,0,0,4.217-.436,35.327,35.327,0,0,0,1.406,11.671,9.859,9.859,0,0,0-2.752,7.154c0,4.434,2.186,7.712,6.5,9.744,6.226,3.253,22.867,3.253,29.093,0,4.312-2.031,6.5-5.31,6.5-9.744a9.858,9.858,0,0,0-2.752-7.154,35.324,35.324,0,0,0,1.406-11.671,20.509,20.509,0,0,0,4.217.436,18.11,18.11,0,0,0,5.739-.855A1.189,1.189,0,0,0,60.807,35.57ZM47.369,12.885a.507.507,0,0,1,.362-.488c.29-.058.648.2.911.653A12.239,12.239,0,0,1,46.38,26.816a17.763,17.763,0,0,0-5.748-4.932C44.766,18.522,47.03,15.5,47.369,12.885ZM17.035,38.842a8.429,8.429,0,0,0,2.258-.3,6.1,6.1,0,0,0,4.3-3.832c1.374-3.883,4.187-3.558,5.742-3.018a8.957,8.957,0,0,0,8.116-1.68,7.225,7.225,0,0,0,2.374-5.842c8.267,4.679,9.192,14.7,6.9,23.369-7-4.613-25.564-4.615-32.572,0A34.079,34.079,0,0,1,13.1,37.96a9.307,9.307,0,0,0,3.938.882Zm-4.8-25.792c.263-.455.62-.711.911-.653a.507.507,0,0,1,.362.488c.339,2.615,2.6,5.637,6.737,9a17.763,17.763,0,0,0-5.748,4.932A12.243,12.243,0,0,1,12.231,13.05Zm-9.464,22.1c1.935-4.645,4.926-6.727,8.766-8.184a15.692,15.692,0,0,0,1.631,1.89,19.327,19.327,0,0,0-2.139,6.128,18.28,18.28,0,0,1-8.259.167Zm41.2,28.759c-3.121,1.47-7.674,2.216-13.533,2.216S20.024,65.382,16.9,63.912c-3.454-1.627-5.133-4.111-5.133-7.593s1.679-5.965,5.133-7.593c3.121-1.47,7.674-2.216,13.533-2.216s10.412.746,13.533,2.216c3.454,1.627,5.133,4.111,5.133,7.593S47.424,62.285,43.969,63.912Zm5.878-28.925a19.329,19.329,0,0,0-2.139-6.128,15.66,15.66,0,0,0,1.631-1.89c3.84,1.457,6.831,3.537,8.768,8.189A18.149,18.149,0,0,1,49.848,34.987Z" transform="translate(0.001 -10.009)"/>
          <path id="Trazado_898047" data-name="Trazado 898047" d="M277.192,357.421h0a1.189,1.189,0,1,0,1.19,1.189A1.189,1.189,0,0,0,277.192,357.421Z" transform="translate(-243.188 -316.116)"/>
          <path id="Trazado_898048" data-name="Trazado 898048" d="M217.19,357.421h0a1.189,1.189,0,1,0,1.19,1.189A1.189,1.189,0,0,0,217.19,357.421Z" transform="translate(-190.32 -316.116)"/>
          <path id="Trazado_898049" data-name="Trazado 898049" d="M302.855,265.591a1.783,1.783,0,0,0,0-3.567h0A1.783,1.783,0,0,0,302.855,265.591Z" transform="translate(-265.284 -232.061)"/>
          <path id="Trazado_898050" data-name="Trazado 898050" d="M182.851,265.591a1.783,1.783,0,0,0,0-3.567h0A1.783,1.783,0,0,0,182.851,265.591Z" transform="translate(-159.547 -232.061)"/>
          <path id="Trazado_898051" data-name="Trazado 898051" d="M247.235,91.4a1.189,1.189,0,0,0,0-2.378h0A1.189,1.189,0,0,0,247.235,91.4Z" transform="translate(-216.798 -79.631)"/>
        </g>
      </g>
    </g>
    <g id="Grupo_1107941" data-name="Grupo 1107941" transform="translate(0 32)">
      <rect id="Rectángulo_402617" data-name="Rectángulo 402617" width="85" height="84" transform="translate(810 749)" fill="#94dab2"/>
      <g id="Grupo_1107989" data-name="Grupo 1107989" transform="translate(825 761)">
        <g id="Grupo_1107987" data-name="Grupo 1107987" transform="translate(1.207 1.187)">
          <path id="Trazado_898066" data-name="Trazado 898066" d="M36.37,30.471C38.7,19.535,71.314,8.629,77.635,19.559c4.155,7.184,1.721,23.226-1.3,30.722-2.555,6.344-6.759,10.984-10.457,12.46-3.679,1.468-6.849-.2-11.282-6.427-4.023-5.655-7.588-10.628-12.693-15.372-2.737-2.544-6.4-6.4-5.536-10.47Zm19.138-18.78C38.089,16.54,21.436,29,38.133,44.514s14.9,25.085,26.929,23.86,19.174-22.038,19.5-33.03,2.5-31.381-29.054-23.654Z" transform="translate(-31.226 -9.984)" fill="#ff9eb1" fill-rule="evenodd"/>
          <path id="Trazado_898067" data-name="Trazado 898067" d="M114.8,56.929C108.476,46,75.858,56.9,73.531,67.841c-.866,4.068,2.8,7.927,5.536,10.47,5.106,4.745,8.671,9.717,12.693,15.372,4.432,6.231,7.6,7.895,11.282,6.427,3.7-1.476,7.9-6.115,10.457-12.46,3.019-7.5,5.453-23.537,1.3-30.721ZM101.156,63.4a30.759,30.759,0,0,1,4.859-2.25c2.529-.862,3.661,2.166,1.624,3.192-9.024,4.586-7.018,13.174-4.234,23.564.735,2.785-3.112,4.035-3.951.906-2.19-8.174-5.95-18.93-15.521-18.13a1.791,1.791,0,1,1-.262-3.565c1.557-.25,2.891-.417,4.582-.544,4.085-.306,5.678,1,7.329.477S97.432,65.468,101.156,63.4Z" transform="translate(-68.387 -47.354)" fill="#ff5d7d" fill-rule="evenodd"/>
          <path id="Trazado_898068" data-name="Trazado 898068" d="M163.972,127.171c-3.724,2.065-3.921,3.13-5.573,3.651s-3.244-.784-7.329-.477c-1.691.127-3.025.294-4.582.544a1.791,1.791,0,1,0,.262,3.565c9.571-.8,13.331,9.956,15.521,18.13.838,3.129,4.685,1.879,3.951-.906-2.784-10.39-4.79-18.979,4.234-23.564,2.037-1.026.906-4.053-1.624-3.192A30.773,30.773,0,0,0,163.972,127.171Z" transform="translate(-131.204 -111.121)" fill="#fff3db" fill-rule="evenodd"/>
        </g>
        <g id="Grupo_1107988" data-name="Grupo 1107988" transform="translate(0 0)">
          <path id="Trazado_898069" data-name="Trazado 898069" d="M71.042,3.612A17.188,17.188,0,0,0,61.634.127,47.475,47.475,0,0,0,46.277,1.739l-.036.009C28.994,6.307,10.473,20.039,28.376,36.588A89.163,89.163,0,0,1,41.43,51.841c4.254,6.267,7.5,9.81,14.8,8.919C69.547,59.116,76.333,37.9,76.8,26.583c.014-.482.032-.982.051-1.5.245-6.867.581-16.272-5.811-21.474ZM74.477,25c-.019.52-.037,1.025-.051,1.511-.3,10.215-7.083,30.727-18.432,31.882a17.974,17.974,0,0,1-1.816.1c-5.12,0-7.042-2.713-10.807-8.027A92.444,92.444,0,0,0,30,34.846c-16.134-14.6.9-26.455,16.866-30.8C68.678-1.251,75.887,5.979,74.477,25Z" transform="translate(-21.071 0)"/>
          <path id="Trazado_898070" data-name="Trazado 898070" d="M99.845,42.951C89.244,40.507,66.431,48,63.531,58.862c-.963,4.526,2.642,8.57,5.89,11.589,1.105,1.027,2.155,2.08,3.209,3.219a1.189,1.189,0,0,0,1.745-1.615c-3.16-3.646-9.412-7.666-8.518-12.7,2.288-7.578,15.913-12.793,24.021-14.068,7.583-1.2,13.07.074,15.053,3.5,3.808,6.585,1.732,21.978-1.371,29.682-2.3,5.712-6.145,10.343-9.8,11.8a4.66,4.66,0,0,1-4.337-.259c-2.611-1.282-6.021-6.452-8.247-9.531a1.189,1.189,0,1,0-1.921,1.4c.876,1.2,1.739,2.41,2.7,3.755,4.4,6.019,7.754,8.7,12.691,6.842,4.223-1.685,8.588-6.835,11.119-13.12,3.051-8.178,5.763-23.119,1.224-31.761C105.633,45.256,103.229,43.691,99.845,42.951Z" transform="translate(-58.343 -37.435)"/>
          <path id="Trazado_898071" data-name="Trazado 898071" d="M147.485,131.97c2.365,3.543,3.825,8.316,4.833,12.078a3.225,3.225,0,1,0,6.247-1.522c-2.986-11.147-4.233-18.2,3.62-22.195a2.923,2.923,0,0,0,1.476-3.794,3.066,3.066,0,0,0-4.018-1.585,31.254,31.254,0,0,0-5.052,2.336,23.013,23.013,0,0,0-3.829,2.6,4.268,4.268,0,0,1-1.524.959,4.073,4.073,0,0,1-1.929-.144,17.244,17.244,0,0,0-5.132-.385c-1.63.122-2.986.283-4.682.556a2.965,2.965,0,0,0-2.765,3.323,3.013,3.013,0,0,0,3.333,2.6C141.869,126.481,144.952,128.176,147.485,131.97Zm-9.638-7.544-.043,0a.647.647,0,0,1-.718-.566c-.047-.336.218-.553.788-.645,1.625-.261,2.924-.416,4.482-.533a14.973,14.973,0,0,1,4.484.345,5.932,5.932,0,0,0,3.114.081,6.493,6.493,0,0,0,2.316-1.387,20.635,20.635,0,0,1,3.476-2.358,29.4,29.4,0,0,1,4.666-2.164c.529-.18.915-.088,1.058.254.046.111.158.492-.357.752-10.143,5.154-7.449,15.208-4.845,24.927.2.741-.18,1.122-.56,1.224-.493.131-.9-.216-1.092-.928-2.048-8.116-6.5-20.052-16.768-19.007Z" transform="translate(-121.193 -101.092)"/>
          <path id="Trazado_898072" data-name="Trazado 898072" d="M169.038,322.143h0a1.189,1.189,0,1,0,1.19,1.189A1.189,1.189,0,0,0,169.037,322.143Z" transform="translate(-150.398 -283.842)"/>
        </g>
      </g>
    </g>
    <g id="Grupo_1107942" data-name="Grupo 1107942" transform="translate(0 32)">
      <rect id="Rectángulo_402618" data-name="Rectángulo 402618" width="85" height="84" transform="translate(915 749)" fill="#94dab2"/>
      <g id="Grupo_1107986" data-name="Grupo 1107986" transform="translate(927 766)">
        <g id="Grupo_1107984" data-name="Grupo 1107984" transform="translate(1.189 1.148)">
          <path id="Trazado_898052" data-name="Trazado 898052" d="M108.534,206.59l-6.5-6.5a2.378,2.378,0,1,0-3.363,3.363l6.5,6.5a2.378,2.378,0,0,0,3.363-3.363Z" transform="translate(-87.517 -182.348)" fill="#c68a86" fill-rule="evenodd"/>
          <path id="Trazado_898053" data-name="Trazado 898053" d="M32.923,65.334,48.935,81.345a2.378,2.378,0,1,1-3.363,3.363L29.56,68.7a2.378,2.378,0,0,1,3.363-3.363Zm-11.77,8.407a2.385,2.385,0,0,0,0,3.363l6.5,6.5a2.378,2.378,0,1,0,3.363-3.363l-6.5-6.5a2.385,2.385,0,0,0-3.363,0ZM10,75.021c0,10.506,13.095,19.023,29.248,19.023S68.5,85.527,68.5,75.021,55.4,56,39.248,56,10,64.515,10,75.021ZM47.479,69.8l6.5,6.5a2.378,2.378,0,0,0,3.363-3.363l-6.5-6.5A2.378,2.378,0,1,0,47.479,69.8Z" transform="translate(-10 -55.998)" fill="#ddb9b6" fill-rule="evenodd"/>
          <g id="Grupo_1107983" data-name="Grupo 1107983" transform="translate(0 8.642)">
            <path id="Trazado_898054" data-name="Trazado 898054" d="M320.1,142.035l6.5,6.5a2.378,2.378,0,0,0,3.363-3.363l-6.5-6.5a2.378,2.378,0,1,0-3.363,3.363Z" transform="translate(-282.616 -136.873)" fill="#c68a86" fill-rule="evenodd"/>
            <path id="Trazado_898055" data-name="Trazado 898055" d="M188.756,145.391l-16.012-16.012a2.378,2.378,0,1,0-3.363,3.363l16.012,16.012a2.378,2.378,0,0,0,3.363-3.363Z" transform="translate(-149.821 -128.686)" fill="#c68a86" fill-rule="evenodd"/>
            <path id="Trazado_898056" data-name="Trazado 898056" d="M68.5,216c0,10.506-13.095,19.023-29.248,19.023S10,226.5,10,216v9.512c0,10.506,13.095,19.023,29.248,19.023S68.5,236.016,68.5,225.51Z" transform="translate(-10 -205.617)" fill="#c68a86" fill-rule="evenodd"/>
          </g>
        </g>
        <g id="Grupo_1107985" data-name="Grupo 1107985" transform="translate(0 0)">
          <path id="Trazado_898057" data-name="Trazado 898057" d="M51.766,52.067c-11.235-7.63-31.424-7.63-42.659,0C3.234,55.887,0,61.018,0,66.515v9.512c0,5.5,3.234,10.628,9.107,14.448,11.235,7.631,31.424,7.631,42.659,0,5.873-3.82,9.107-8.951,9.107-14.448V66.515c0-5.5-3.234-10.628-9.107-14.448ZM10.4,54.06c5.333-3.469,12.448-5.379,20.033-5.379s14.7,1.91,20.033,5.379c10.649,6.736,10.651,18.173,0,24.909-5.333,3.469-12.448,5.379-20.033,5.379s-14.7-1.91-20.033-5.379C-.245,72.233-.248,60.8,10.4,54.06ZM58.5,76.026c-.54,12.257-16.232,17.918-28.059,17.834-11.822.088-27.526-5.584-28.059-17.834V74.41a22.11,22.11,0,0,0,6.729,6.553c11.235,7.631,31.424,7.631,42.659,0A22.112,22.112,0,0,0,58.5,74.41v1.617Z" transform="translate(0 -46.344)"/>
          <path id="Trazado_898058" data-name="Trazado 898058" d="M163.943,128.986a1.189,1.189,0,1,0,1.682-1.682l-4.223-4.222a1.189,1.189,0,1,1,1.682-1.682l16.012,16.012a1.189,1.189,0,0,1-1.681,1.681l-4.223-4.223a1.189,1.189,0,0,0-1.682,1.682l4.223,4.223a3.567,3.567,0,0,0,5.044-5.044L164.764,119.72a3.567,3.567,0,1,0-5.044,5.044Z" transform="translate(-139.811 -110.077)"/>
          <path id="Trazado_898059" data-name="Trazado 898059" d="M95.508,201.973a3.542,3.542,0,0,0,2.522,1.042h0a3.564,3.564,0,0,0,2.522-6.086l-6.5-6.5a3.571,3.571,0,0,0-5.044,0h0a3.571,3.571,0,0,0,0,5.044ZM90.69,192.11a1.191,1.191,0,0,1,1.682,0l6.5,6.5a1.189,1.189,0,0,1-1.681,1.681l-6.5-6.5A1.19,1.19,0,0,1,90.69,192.11Z" transform="translate(-77.507 -172.379)"/>
          <path id="Trazado_898060" data-name="Trazado 898060" d="M316.934,140.554a3.567,3.567,0,1,0,5.044-5.044l-6.5-6.5a3.571,3.571,0,0,0-5.044,0h0a3.571,3.571,0,0,0,0,5.044Zm-4.819-9.863a1.191,1.191,0,0,1,1.681,0l6.5,6.5a1.186,1.186,0,0,1-.841,2.027h0a1.179,1.179,0,0,1-.84-.345l-6.5-6.5A1.19,1.19,0,0,1,312.115,130.691Z" transform="translate(-272.607 -118.263)"/>
          <path id="Trazado_898061" data-name="Trazado 898061" d="M98.742,134.629a1.189,1.189,0,0,0,0-2.378h0A1.189,1.189,0,0,0,98.742,134.629Z" transform="translate(-85.959 -122.037)"/>
          <path id="Trazado_898062" data-name="Trazado 898062" d="M235.188,309.251h0a1.189,1.189,0,1,0,1.19,1.189A1.189,1.189,0,0,0,235.187,309.251Z" transform="translate(-206.178 -277.993)"/>
          <path id="Trazado_898063" data-name="Trazado 898063" d="M266.735,110.629a1.189,1.189,0,0,0,0-2.378h0A1.189,1.189,0,0,0,266.735,110.629Z" transform="translate(-233.979 -100.891)"/>
          <path id="Trazado_898064" data-name="Trazado 898064" d="M389.688,267.251h0a1.189,1.189,0,1,0,1.19,1.189A1.189,1.189,0,0,0,389.687,267.251Z" transform="translate(-342.309 -240.987)"/>
          <path id="Trazado_898065" data-name="Trazado 898065" d="M232.285,222.24a1.189,1.189,0,0,0,1.522-1.827h0a1.189,1.189,0,1,0-1.521,1.827Z" transform="translate(-204.29 -199.474)"/>
        </g>
      </g>
    </g>
  </g>
</svg>
