<svg xmlns="http://www.w3.org/2000/svg" xmlns:xlink="http://www.w3.org/1999/xlink" width="129.146" height="120.881" viewBox="0 0 129.146 120.881">
  <defs>
    <filter id="Trazado_877977" x="0" y="0" width="129.146" height="120.881" filterUnits="userSpaceOnUse">
      <feOffset dy="3" input="SourceAlpha"/>
      <feGaussianBlur stdDeviation="3" result="blur"/>
      <feFlood flood-opacity="0.161"/>
      <feComposite operator="in" in2="blur"/>
      <feComposite in="SourceGraphic"/>
    </filter>
  </defs>
  <g id="Grupo_1108185" data-name="Grupo 1108185" transform="translate(-195.413 -479.68)">
    <g transform="matrix(1, 0, 0, 1, 195.41, 479.68)" filter="url(#Trazado_877977)">
      <path id="Trazado_877977-2" data-name="Trazado 877977" d="M108.094,76.242c-4.42,4.4-11.482,5.534-18.264,2.718a13.476,13.476,0,0,1-8.252-8.977c-1.381-4.332,1.1-7.722,5.593-7.16,3.557.445,6.038-.014,8.815-2.66,4-3.812,10.037-3.524,12.9-.305C112.812,64.268,112.442,71.914,108.094,76.242ZM64.454,47.389a10.033,10.033,0,0,1-6.142-6.682c-1.028-3.225.819-5.748,4.164-5.33,2.648.331,4.494-.011,6.561-1.98,2.978-2.837,7.471-2.623,9.6-.227,2.921,3.283,2.646,8.974-.591,12.2C74.759,48.64,69.5,49.484,64.454,47.389Zm-3.859,40.5c2.921,3.283,2.646,8.974-.591,12.2-3.29,3.275-8.547,4.119-13.6,2.023a10.032,10.032,0,0,1-6.142-6.682c-1.028-3.225.818-5.748,4.163-5.33,2.648.331,4.494-.01,6.561-1.98C53.97,85.276,58.462,85.49,60.595,87.886ZM44.51,8.973c-2.264,1.415-3.482,2.845-3.845,5.677-.523,4.081-4.146,6.751-7.312,6.238-4.337-.7-7.711-5.289-7.23-9.83C26.613,6.441,30.161,2.468,35.4.907a10.03,10.03,0,0,1,8.981,1.3C47.213,4.063,47.371,7.186,44.51,8.973ZM32.351,50.055c4.519,5.078,4.093,13.884-.914,18.867-5.09,5.067-13.222,6.372-21.033,3.13A15.52,15.52,0,0,1,.9,61.715c-1.59-4.989,1.266-8.893,6.441-8.245,4.1.512,6.953-.017,10.151-3.063C22.1,46.017,29.052,46.348,32.351,50.055Z" transform="translate(8.54 5.63)" fill="#fcefec" fill-rule="evenodd"/>
    </g>
    <g id="Grupo_1107978" data-name="Grupo 1107978" transform="translate(10516.449 10772.483)">
      <path id="Trazado_898030" data-name="Trazado 898030" d="M113.619,107.811a16.3,16.3,0,0,0-.472-3.026c-1.416-7.389.867-14.931,3.125-22.108a23.71,23.71,0,0,0-4.207,21.37,25.252,25.252,0,0,1,.806,3.145,17.28,17.28,0,0,1-.034,3.015A4.118,4.118,0,0,0,113.619,107.811Z" transform="translate(-10367.557 -10322.581)" fill="#f5b2a4"/>
      <path id="Trazado_898031" data-name="Trazado 898031" d="M150.972,101.24a28.793,28.793,0,0,1-.648-4.224C150.57,91,148.812,84.8,147.405,79a21.425,21.425,0,0,1-.814-2.812,31.245,31.245,0,0,1,.184-4.5c.14-2.957.217-5.237-.868-8.052-.923-2.4-2.169-4.793-2.117-7.428.006-.294.029-.587.059-.879q2.712,6.692,5.917,13.171A7.743,7.743,0,0,1,150.8,71.6a20.759,20.759,0,0,1-.707,3.645,6.142,6.142,0,0,0,3.855,6.469,9.636,9.636,0,0,1-1.754-5.577,23.709,23.709,0,0,0-.706-5.884c-.95-2.883-3.382-5.174-3.966-8.154-.322-1.644-.045-3.354-.291-5.011a8.167,8.167,0,0,0-3.211-5.288c-.281-1.816-1.431-2.379-3.435-2.829-2.768-.621-5.264-2.026-7.92-2.973a18.964,18.964,0,0,0-7.59-1.007,102.832,102.832,0,0,1-23.934-1.128,29.105,29.105,0,0,0-7.248-.669c-1.834.161-3.647.72-5.482.573-2.412-.193-4.649-1.59-7.067-1.523a11.911,11.911,0,0,0-2.705.5c-3.089.822-6.011,1.969-9.19,1.617-2.366-.262-4.8-.027-7.176-.2-2.863-.205-5.672-.848-8.525-1.252a2.982,2.982,0,0,1-.858-.21c-.733-.343-1.053-1.187-1.505-1.858a4.543,4.543,0,0,0-4.564-1.864l-.039,1.636c-.12-1.508-2.467-2.53-2.191-4.1a4.9,4.9,0,0,0-.417,3.352,3.567,3.567,0,0,1-.027,1.435c-.454,1.513-2.377,1.768-3.151,3.112-1.273,2.211-2.044,4.666-3.182,6.944A18.938,18.938,0,0,1,32.736,57.4a1.385,1.385,0,0,0-.446,2.127A6.875,6.875,0,0,0,34.635,62.4c1.689.964,3.747.348,5.483-.143a40.437,40.437,0,0,0,4.928-1.34,2.968,2.968,0,0,1,.872-.286,2.552,2.552,0,0,1,.884.129c3,.805,6.485,1.273,9.324,2.519,1.7.746,4.484,2.879,4.76,4.807h.166c0,.51.67.3.655.654a19.3,19.3,0,0,0,5.779,5.1,8.57,8.57,0,0,0,2.5,4.6c1.128,1.154,2.7,1.972,3.4,3.469.857,1.862.55,4.316,3.346,3.647-.076-1.774-.224-3.551-.34-5.325a30.254,30.254,0,0,1,1.381,8.824c.009,2.155-1.432,4.645-1.1,6.676a4.972,4.972,0,0,0,.369,1.065,16.551,16.551,0,0,1,.983,8.087c-.135,1.254-.158,2.454-.232,3.686a9.394,9.394,0,0,1-1.8,4.1c-.345.557-1.684,2.037-1.172,2.637a16.843,16.843,0,0,0,2.394.425,9.873,9.873,0,0,0,2.337-.5,1.6,1.6,0,0,0,.969-.924c.075-.225.079-.467.132-.7.4-1.767,2.829-1.978,2.851-4.1a8.411,8.411,0,0,0-.65-2.687,23.217,23.217,0,0,1-.76-10.1,69.4,69.4,0,0,1,2.223-9.962,12.535,12.535,0,0,1,1.6-3.971c1-1.424,2.616-2.459,3.169-4.111.17-.506,5.632,1.993,6.108,2.359a16.765,16.765,0,0,0,5.921,2.685,28.056,28.056,0,0,0,8.419.967c2.349-.083,4.78-1.34,7.124-1.071,1.807.207,4.533,2,3.109,4.074a.762.762,0,0,0,1.186-.066c.147-.237.149-.54.284-.784.317-.566,1.129-.531,1.768-.419l5.349.934a.98.98,0,0,1,.531.207c.311.3.114.831.254,1.239a.8.8,0,0,0,1.475-.14c.055-.4-.205-.817-.061-1.192a1.191,1.191,0,0,1,.5-.51l2.752-1.84,6.559,8.2c1.66,2.074,1.385,4.088,1.82,6.595a18.392,18.392,0,0,1,.178,5.957c-.3,1.9-1.4,3.774-1.421,5.687a.25.25,0,0,0,.034.156.261.261,0,0,0,.216.068q1.875,0,3.748-.122a.83.83,0,0,0,.342-.072c.355-.189.264-.7.255-1.106a4.355,4.355,0,0,1,1.032-2.3c1.065-1.64-.033-2.259-.283-3.837-.156-.988-.383-1.963-.544-2.95-.123-.754.188-2.274-.059-2.883a23.83,23.83,0,0,1,1.806,8.129c.035,1.092.342,2.21.284,3.277a10.621,10.621,0,0,1-1.458,3.994,4.382,4.382,0,0,0-.684,2.6.323.323,0,0,0,.066.172.356.356,0,0,0,.3.066l4.528-.4a.646.646,0,0,0,.437-.153.746.746,0,0,0,.091-.557,4.078,4.078,0,0,1,.644-2.123,6.507,6.507,0,0,0,.579-1.431c.569-2.112-.058-4.185-.609-6.426A38.6,38.6,0,0,1,150.972,101.24Z" transform="translate(-10349.42 -10312)" fill="#f5b2a4"/>
    </g>
  </g>
</svg>
