<svg xmlns="http://www.w3.org/2000/svg" xmlns:xlink="http://www.w3.org/1999/xlink" width="73" height="73" viewBox="0 0 73 73">
  <defs>
    <clipPath id="clip-path">
      <rect id="Rectángulo_402754" data-name="Rectángulo 402754" width="49" height="49" transform="translate(0 0)" fill="none"/>
    </clipPath>
  </defs>
  <g id="Grupo_1108058" data-name="Grupo 1108058" transform="translate(-764 -1061)">
    <circle id="Elipse_11715" data-name="Elipse 11715" cx="36.5" cy="36.5" r="36.5" transform="translate(764 1061)" fill="#f9f1be"/>
    <g id="Grupo_1108056" data-name="Grupo 1108056" transform="translate(776 1072.825)">
      <g id="Grupo_1108055" data-name="Grupo 1108055" transform="translate(0 0.174)" clip-path="url(#clip-path)">
        <path id="Trazado_898116" data-name="Trazado 898116" d="M13.375,194.75a5.375,5.375,0,1,1,5.375-5.375,5.381,5.381,0,0,1-5.375,5.375m0-9.215a3.839,3.839,0,1,0,3.839,3.839,3.844,3.844,0,0,0-3.839-3.839" transform="translate(-6.464 -148.822)" fill="#323232"/>
        <path id="Trazado_898117" data-name="Trazado 898117" d="M30.3,209.536H28.768a.768.768,0,0,1,0-1.536H30.3a.768.768,0,0,1,0,1.536" transform="translate(-22.625 -168.214)" fill="#323232"/>
        <path id="Trazado_898118" data-name="Trazado 898118" d="M105.375,194.75a5.375,5.375,0,1,1,5.375-5.375,5.381,5.381,0,0,1-5.375,5.375m0-9.215a3.839,3.839,0,1,0,3.839,3.839,3.844,3.844,0,0,0-3.839-3.839" transform="translate(-80.803 -148.822)" fill="#323232"/>
        <path id="Trazado_898119" data-name="Trazado 898119" d="M122.3,209.536h-1.536a.768.768,0,0,1,0-1.536H122.3a.768.768,0,0,1,0,1.536" transform="translate(-96.963 -168.214)" fill="#323232"/>
        <path id="Trazado_898120" data-name="Trazado 898120" d="M197.375,194.75a5.375,5.375,0,1,1,5.375-5.375,5.381,5.381,0,0,1-5.375,5.375m0-9.215a3.839,3.839,0,1,0,3.839,3.839,3.844,3.844,0,0,0-3.839-3.839" transform="translate(-155.141 -148.822)" fill="#323232"/>
        <path id="Trazado_898121" data-name="Trazado 898121" d="M214.3,209.536h-1.536a.768.768,0,0,1,0-1.536H214.3a.768.768,0,0,1,0,1.536" transform="translate(-171.302 -168.214)" fill="#323232"/>
        <path id="Trazado_898122" data-name="Trazado 898122" d="M68.091,185.536H32.768a.768.768,0,0,1,0-1.536H68.091a.768.768,0,0,1,0,1.536" transform="translate(-25.857 -148.822)" fill="#323232"/>
        <path id="Trazado_898123" data-name="Trazado 898123" d="M68.091,233.536H32.768a.768.768,0,0,1,0-1.536H68.091a.768.768,0,0,1,0,1.536" transform="translate(-25.857 -187.607)" fill="#323232"/>
        <path id="Trazado_898124" data-name="Trazado 898124" d="M158.59,133.822a.768.768,0,0,1-.768-.768V121.536H145.536v11.518a.768.768,0,1,1-1.536,0V120.768a.768.768,0,0,1,.768-.768H158.59a.768.768,0,0,1,.768.768v12.286a.768.768,0,0,1-.768.768" transform="translate(-116.356 -97.108)" fill="#323232"/>
        <path id="Trazado_898125" data-name="Trazado 898125" d="M46.59,133.822a.768.768,0,0,1-.768-.768V121.536H33.536v11.518a.768.768,0,1,1-1.536,0V120.768a.768.768,0,0,1,.768-.768H46.59a.768.768,0,0,1,.768.768v12.286a.768.768,0,0,1-.768.768" transform="translate(-25.857 -97.108)" fill="#323232"/>
        <path id="Trazado_898126" data-name="Trazado 898126" d="M58.234,17.536H16.768a.768.768,0,0,1,0-1.536H58.234a.768.768,0,1,1,0,1.536" transform="translate(-12.928 -13.073)" fill="#323232"/>
        <path id="Trazado_898127" data-name="Trazado 898127" d="M161.982,25.213H154.3a.768.768,0,0,1-.753-.617l-1.536-7.679a.768.768,0,1,1,1.506-.3l1.412,7.062h6.42l1.412-7.062a.768.768,0,1,1,1.506.3L162.735,24.6a.768.768,0,0,1-.753.617" transform="translate(-122.82 -13.072)" fill="#323232"/>
        <path id="Trazado_898128" data-name="Trazado 898128" d="M180.768,61.375a.768.768,0,0,1-.768-.768V56.768a.768.768,0,1,1,1.536,0v3.839a.768.768,0,0,1-.768.768" transform="translate(-145.445 -45.394)" fill="#323232"/>
        <path id="Trazado_898129" data-name="Trazado 898129" d="M164.063,81.375h-.384a.768.768,0,1,1,0-1.536h.384a1.152,1.152,0,0,0,0-2.3h-5.375a1.152,1.152,0,1,0,0,2.3h.384a.768.768,0,0,1,0,1.536h-.384a2.688,2.688,0,1,1,0-5.375h5.375a2.688,2.688,0,0,1,0,5.375" transform="translate(-126.052 -61.555)" fill="#323232"/>
        <path id="Trazado_898130" data-name="Trazado 898130" d="M49.982,25.213H42.3a.768.768,0,0,1-.753-.617l-1.536-7.679a.768.768,0,1,1,1.506-.3l1.412,7.062h6.42l1.412-7.062a.768.768,0,1,1,1.506.3L50.735,24.6a.768.768,0,0,1-.753.617" transform="translate(-32.321 -13.072)" fill="#323232"/>
        <path id="Trazado_898131" data-name="Trazado 898131" d="M68.768,61.375A.768.768,0,0,1,68,60.607V56.768a.768.768,0,0,1,1.536,0v3.839a.768.768,0,0,1-.768.768" transform="translate(-54.946 -45.394)" fill="#323232"/>
        <path id="Trazado_898132" data-name="Trazado 898132" d="M52.063,81.375h-.384a.768.768,0,0,1,0-1.536h.384a1.152,1.152,0,0,0,0-2.3H46.688a1.152,1.152,0,0,0,0,2.3h.384a.768.768,0,0,1,0,1.536h-.384a2.688,2.688,0,1,1,0-5.375h5.375a2.688,2.688,0,0,1,0,5.375" transform="translate(-35.553 -61.555)" fill="#323232"/>
      </g>
    </g>
  </g>
</svg>
