<svg xmlns="http://www.w3.org/2000/svg" xmlns:xlink="http://www.w3.org/1999/xlink" width="73" height="73" viewBox="0 0 73 73">
  <defs>
    <clipPath id="clip-path">
      <rect id="Rectángulo_402758" data-name="Rectángulo 402758" width="57" height="49.402" fill="none"/>
    </clipPath>
  </defs>
  <g id="Grupo_1108061" data-name="Grupo 1108061" transform="translate(-975 -1061)">
    <circle id="Elipse_11716" data-name="Elipse 11716" cx="36.5" cy="36.5" r="36.5" transform="translate(975 1061)" fill="#f9f1be"/>
    <g id="Grupo_1108060" data-name="Grupo 1108060" transform="translate(983 1073)">
      <g id="Grupo_1108059" data-name="Grupo 1108059" transform="translate(0 0)" clip-path="url(#clip-path)">
        <path id="Trazado_898137" data-name="Trazado 898137" d="M11.16,40.2a.856.856,0,0,1-.4-.1L.462,34.68a.864.864,0,0,1-.106-1.463l11.921-8.669a.864.864,0,0,1,.987-.021l.681.455a.863.863,0,0,1-.958,1.437l-.18-.121L2.494,33.8l9.068,4.773a.864.864,0,0,1-.4,1.628" transform="translate(0 -7.536)" fill="#505050"/>
        <path id="Trazado_898138" data-name="Trazado 898138" d="M50.446,44.3H15.766a.864.864,0,0,1-.741-1.309l2.954-4.923a.864.864,0,1,1,1.481.89L17.292,42.57H48.921l-2.169-3.615a.864.864,0,0,1,1.482-.89l2.954,4.923a.864.864,0,0,1-.741,1.309" transform="translate(-4.606 -11.636)" fill="#505050"/>
        <path id="Trazado_898139" data-name="Trazado 898139" d="M64.931,40.2a.864.864,0,0,1-.4-1.628L73.6,33.8,63.283,26.3l-.18.121a.863.863,0,0,1-.958-1.437l.681-.455a.864.864,0,0,1,.987.021l11.921,8.669a.864.864,0,0,1-.106,1.463L65.332,40.1a.856.856,0,0,1-.4.1" transform="translate(-19.09 -7.536)" fill="#505050"/>
        <path id="Trazado_898140" data-name="Trazado 898140" d="M47.682,63.313H18.53a.864.864,0,0,1-.853-.722L14.914,46.009a.864.864,0,0,1,1.7-.283l2.643,15.86h27.69l2.643-15.86a.864.864,0,0,1,1.7.283L48.534,62.591a.863.863,0,0,1-.852.722" transform="translate(-4.606 -13.911)" fill="#505050"/>
        <path id="Trazado_898141" data-name="Trazado 898141" d="M24.358,33.622a.857.857,0,0,1-.4-.1l-5.721-3.01a.864.864,0,0,1-.106-1.463l6.624-4.818a.864.864,0,0,1,.987-.02l2.71,1.807a.864.864,0,1,1-.958,1.437l-2.209-1.473-5.016,3.647,4.493,2.365a.864.864,0,0,1-.4,1.628" transform="translate(-5.494 -7.439)" fill="#505050"/>
        <path id="Trazado_898142" data-name="Trazado 898142" d="M46.188,34.429H26.919a.863.863,0,0,1-.741-1.308L29.791,27.1a.866.866,0,0,1,.741-.419H42.575a.864.864,0,0,1,.741.419l3.613,6.022a.863.863,0,0,1-.741,1.308M28.444,32.7H44.663l-2.577-4.295H31.02Z" transform="translate(-8.053 -8.247)" fill="#505050"/>
        <path id="Trazado_898143" data-name="Trazado 898143" d="M53.194,33.622a.864.864,0,0,1-.4-1.628l4.493-2.365-5.016-3.647-2.209,1.473a.864.864,0,1,1-.958-1.437l2.71-1.807a.864.864,0,0,1,.987.02l6.624,4.818a.864.864,0,0,1-.106,1.463L53.6,33.522a.857.857,0,0,1-.4.1" transform="translate(-15.058 -7.439)" fill="#505050"/>
        <path id="Trazado_898144" data-name="Trazado 898144" d="M27.424,40.548a.863.863,0,0,1-.852-.733l-.508-3.3a.864.864,0,0,1,1.708-.262l.506,3.3a.862.862,0,0,1-.723.984.849.849,0,0,1-.132.01" transform="translate(-8.053 -10.98)" fill="#505050"/>
        <path id="Trazado_898145" data-name="Trazado 898145" d="M54.077,40.548a.849.849,0,0,1-.132-.01.862.862,0,0,1-.723-.984l.506-3.3a.864.864,0,1,1,1.707.262l-.507,3.3a.863.863,0,0,1-.852.733" transform="translate(-16.448 -10.98)" fill="#505050"/>
        <path id="Trazado_898146" data-name="Trazado 898146" d="M30.38,18.984a.864.864,0,0,1-.864-.864V13.246a.864.864,0,1,1,1.727,0V18.12a.864.864,0,0,1-.864.864" transform="translate(-9.123 -3.827)" fill="#505050"/>
        <path id="Trazado_898147" data-name="Trazado 898147" d="M51.349,14.641a.864.864,0,0,1-.864-.864V5.14a.864.864,0,0,1,1.727,0v8.638a.864.864,0,0,1-.864.864" transform="translate(-15.605 -1.322)" fill="#505050"/>
        <path id="Trazado_898148" data-name="Trazado 898148" d="M44.359,20.281a.864.864,0,0,1-.864-.864V11.947a.864.864,0,1,1,1.727,0v7.471a.864.864,0,0,1-.864.864" transform="translate(-13.444 -3.426)" fill="#505050"/>
        <path id="Trazado_898149" data-name="Trazado 898149" d="M37.369,14.394a.864.864,0,0,1-.864-.864V7.8a.864.864,0,1,1,1.727,0v5.731a.864.864,0,0,1-.864.864" transform="translate(-11.284 -2.144)" fill="#505050"/>
        <path id="Trazado_898150" data-name="Trazado 898150" d="M44.359,5.755a.864.864,0,0,1-.864-.864V4.6a.864.864,0,1,1,1.727,0v.288a.864.864,0,0,1-.864.864m0-3.739a.864.864,0,0,1-.864-.864V.864a.864.864,0,1,1,1.727,0v.288a.864.864,0,0,1-.864.864" transform="translate(-13.444 0)" fill="#505050"/>
        <path id="Trazado_898151" data-name="Trazado 898151" d="M30.38,7.077a.864.864,0,0,1-.864-.864V5.925a.864.864,0,1,1,1.727,0v.288a.864.864,0,0,1-.864.864m0-3.739a.864.864,0,0,1-.864-.864V2.34a.864.864,0,1,1,1.727,0v.135a.864.864,0,0,1-.864.864" transform="translate(-9.123 -0.456)" fill="#505050"/>
        <path id="Trazado_898152" data-name="Trazado 898152" d="M58.338,18.143a.864.864,0,0,1-.864-.864V13.69a.864.864,0,0,1,1.727,0v3.59a.864.864,0,0,1-.864.864" transform="translate(-17.765 -3.964)" fill="#505050"/>
        <path id="Trazado_898153" data-name="Trazado 898153" d="M58.338,9.246a.864.864,0,0,1-.864-.864V8.095a.864.864,0,0,1,1.727,0v.288a.864.864,0,0,1-.864.864" transform="translate(-17.765 -2.235)" fill="#505050"/>
        <path id="Trazado_898154" data-name="Trazado 898154" d="M23.391,9.809a.864.864,0,0,1-.864-.864V8.658a.864.864,0,0,1,1.727,0v.288a.864.864,0,0,1-.864.864" transform="translate(-6.963 -2.409)" fill="#505050"/>
        <path id="Trazado_898155" data-name="Trazado 898155" d="M23.391,17.943a.864.864,0,0,1-.864-.864V14.3a.864.864,0,0,1,1.727,0v2.784a.864.864,0,0,1-.864.864" transform="translate(-6.963 -4.152)" fill="#505050"/>
      </g>
    </g>
  </g>
</svg>
